<svg width="85" height="24" viewBox="0 0 85 24" fill="none" xmlns="http://www.w3.org/2000/svg">
<path d="M0 15.1686V0.000297546H5.65682V15.1686C5.65682 17.8218 6.94785 18.765 8.65781 18.765C10.3335 18.765 11.6614 17.8218 11.6614 15.1686V0.000297546H17.3183V15.1686C17.3183 17.8218 18.6462 18.765 20.3219 18.765C22.0318 18.765 23.3255 17.8218 23.3255 15.1686V0.000297546H28.9823V15.1686C28.9823 21.2786 25.4201 24.0003 20.8119 24.0003C18.0534 24.0003 15.8533 22.9174 14.4938 20.857C13.1316 22.9174 10.9316 24.0003 8.17565 24.0003C3.56219 24.0003 0 21.2786 0 15.1686Z" fill="white"/>
<path d="M55.1876 13.8802C55.2877 13.2531 55.3378 12.6129 55.3378 11.9568C55.3115 5.34095 49.9102 -0.0234132 43.2917 0.000299566C36.6732 0.0240124 31.3114 5.4279 31.3352 12.0438C31.3589 18.6623 36.7628 24.024 43.3786 24.0003C48.2582 23.9819 52.4554 21.0388 54.3129 16.839L47.7655 16.8627C46.6009 17.9246 45.057 18.5832 43.3576 18.5885C40.3908 18.5991 37.8694 16.6388 37.0368 13.9408L55.185 13.8802M43.3128 5.41209C45.987 5.40155 48.2977 6.99558 49.3385 9.28518L37.3161 9.32734C38.341 7.02983 40.6385 5.42 43.3128 5.41209Z" fill="white"/>
<path d="M78.305 0.000305176H70.9777L65.7398 7.68589L60.5046 0.000305176H53.1773L61.353 12.0016L53.1773 24.0029H60.5046L65.7398 16.3174L70.9777 24.0029H78.305L70.1294 12.0016L78.305 0.000305176ZM59.8433 22.7514H55.5407L62.8653 12.0016L55.5407 1.25181H59.8433L67.1679 12.0016L59.8433 22.7514Z" fill="white"/>
<path d="M59.1819 2.50069H57.9067L64.3776 12.0016L57.9067 21.4999H59.1819L65.6555 12.0016L59.1819 2.50069Z" fill="white"/>
<path d="M68.6802 12.0016V20.6278L65.7398 16.3147L68.6802 12.0016Z" fill="#E9E9E9"/>
<path d="M80.916 0.524622H80.0729V2.81423H79.3958V0.524622H78.5658V0.000305176H80.916V0.524622Z" fill="white"/>
<path d="M82.0936 0.000305176L82.7207 1.95793L83.3478 0.000305176H84.241V2.81423H83.5612V2.15817L83.6271 0.814445L82.9473 2.81686H82.4994L81.817 0.814445L81.8829 2.16081V2.81686H81.2057V0.000305176H82.0963H82.0936Z" fill="white"/>
</svg>
